<svg width="100%" height="100%" viewBox="0 0 16 16"xmlns="http://www.w3.org/2000/svg">
  <path d="M126 69.4766L120.577 69.4766L120.577 67.514L123.608 67.514L123.608 64.1121L126 64.1121L126 69.4766ZM111.008 69.4766L101.438 69.4766L101.438 67.514L111.008 67.514L111.008 69.4766ZM91.8683 69.4766L82.2987 69.4766L82.2987 67.514L91.8683 67.514L91.8683 69.4766ZM72.7291 69.4766L63.1595 69.4766L63.1595 67.514L72.7291 67.514L72.7291 69.4766ZM53.5899 69.4766L44.0203 69.4766L44.0203 67.514L53.5899 67.514L53.5899 69.4766ZM34.4506 69.4766L24.881 69.4766L24.881 67.514L34.4506 67.514L34.4506 69.4766ZM15.3114 69.4766L5.74177 69.4766L5.74177 67.514L15.3114 67.514L15.3114 69.4766ZM126 56.2617L123.608 56.2617L123.608 48.4112L126 48.4112L126 56.2617ZM126 40.5607L123.608 40.5607L123.608 32.7103L126 32.7103L126 40.5607ZM126 24.8598L123.608 24.8598L123.608 17.0093L126 17.0093L126 24.8598ZM126 9.15888L123.608 9.15888L123.608 1.30841L126 1.30841L126 9.15888ZM115.633 1.96262L106.063 1.96262L106.063 0L115.633 0L115.633 1.96262ZM96.4937 1.96262L86.924 1.96262L86.924 0L96.4937 0L96.4937 1.96262ZM77.3544 1.96262L67.7848 1.96262L67.7848 0L77.3544 0L77.3544 1.96262ZM58.2152 1.96262L48.6456 1.96262L48.6456 0L58.2152 0L58.2152 1.96262ZM39.076 1.96262L29.5063 1.96262L29.5063 0L39.076 0L39.076 1.96262ZM19.9367 1.96262L10.3671 1.96262L10.3671 0L19.9367 0L19.9367 1.96262ZM0.797468 1.96262L0 1.96262L0 0L0.797468 0L0.797468 1.96262Z" fill="currentColor"/>
</svg>