<svg width="100%" height="100%" viewBox="0 0 16 16"xmlns="http://www.w3.org/2000/svg">
  <path d="M4 6.0201L0.989949 3.01005L-0.989949 4.98995L3.01005 8.98995Q3.05868 9.03858 3.11185 9.08221Q3.16502 9.12585 3.2222 9.16406Q3.27939 9.20227 3.34004 9.23469Q3.4007 9.26711 3.46424 9.29343Q3.52779 9.31975 3.5936 9.33972Q3.65942 9.35968 3.72687 9.3731Q3.79433 9.38652 3.86278 9.39326Q3.93122 9.4 4 9.4Q4.06878 9.4 4.13722 9.39326Q4.20567 9.38652 4.27313 9.3731Q4.34058 9.35968 4.4064 9.33972Q4.47221 9.31975 4.53576 9.29343Q4.5993 9.26711 4.65996 9.23469Q4.72061 9.20227 4.7778 9.16406Q4.83498 9.12585 4.88815 9.08221Q4.94132 9.03858 4.98995 8.98995L12.9899 0.989949L11.0101 -0.989949L4 6.0201Z" fill="currentColor"/>
</svg>